<?xml version="1.0" standalone="no"?>
<!DOCTYPE svg PUBLIC "-//W3C//DTD SVG 20010904//EN"
 "http://www.w3.org/TR/2001/REC-SVG-20010904/DTD/svg10.dtd">
<svg version="1.0" xmlns="http://www.w3.org/2000/svg"
 width="700.000000pt" height="700.000000pt" viewBox="0 0 700.000000 700.000000"
 preserveAspectRatio="xMidYMid meet">
<metadata>
Created by potrace 1.14, written by Peter Selinger 2001-2017
</metadata>
<g transform="translate(0.000000,700.000000) scale(0.100000,-0.100000)"
fill="#000000" stroke="none">
<path d="M1690 6989 c-304 -31 -606 -140 -860 -310 -469 -315 -764 -812 -819
-1383 -15 -151 -15 -3441 0 -3592 88 -909 786 -1605 1698 -1694 146 -14 3428
-14 3581 1 914 85 1615 789 1700 1704 14 150 14 3436 0 3576 -91 915 -788
1613 -1695 1699 -134 12 -3478 12 -3605 -1z m3580 -1538 c102 -79 186 -146
188 -147 2 -1 -325 -422 -727 -936 -402 -513 -730 -938 -729 -945 2 -7 316
-378 699 -825 383 -447 708 -827 723 -845 l27 -32 -173 -148 c-95 -81 -180
-154 -189 -161 -14 -11 -88 71 -590 656 l-574 669 -3 -588 -2 -589 -250 0
-250 0 -1 1418 -1 1417 -733 -1472 c-404 -810 -736 -1473 -740 -1473 -3 0
-104 50 -225 110 l-220 110 973 1945 c645 1290 977 1945 987 1945 8 0 115 -23
237 -52 l223 -52 2 -653 3 -654 570 730 c314 401 575 726 580 723 6 -4 93 -71
195 -151z"/>
</g>
</svg>
