<svg width="100" height="90" viewBox="0 0 100 90" fill="none" xmlns="http://www.w3.org/2000/svg">
<path fill-rule="evenodd" clip-rule="evenodd" d="M25.76 81.6157L18.7 74.2133C17.19 72.6172 18.32 70.0459 20.515 70.0459H95C97.76 70.0459 100 67.7492 100 64.9873V65.019C100 62.2521 97.76 60.041 95 60.041H20.5901C18.3851 60.041 17.26 57.3326 18.79 55.7465L25.8099 48.4467C27.7099 46.4504 27.625 43.2723 25.61 41.3911L25.6 41.3715C23.61 39.5053 20.49 39.6 18.615 41.5864L2.72995 58.288C-0.92505 62.1557 -0.904955 68.2098 2.76505 72.0625L18.51 88.4638C20.38 90.4252 23.4751 90.52 25.4601 88.6738L25.5099 88.625C27.5199 86.7587 27.63 83.617 25.76 81.6157ZM74.4901 1.37398L74.5399 1.32516C76.5249 -0.521093 79.62 -0.426232 81.49 1.53512L97.235 17.9365C100.91 21.7891 100.925 27.8431 97.2749 31.7158L81.385 48.4174C79.515 50.3988 76.3951 50.4984 74.4051 48.6372L74.39 48.6225C72.375 46.7412 72.2899 43.5729 74.1949 41.5815L81.21 34.2866C82.74 32.6955 81.6149 30.019 79.4099 30.019H5C2.24 30.019 0 27.8079 0 25.041V25.0312C0 22.2694 2.24 20.0117 5 20.0117H79.485C81.68 20.0117 82.81 17.411 81.3 15.8149L74.24 8.36861C72.37 6.36726 72.4801 3.24028 74.4901 1.37398Z" fill="#3DE093"/>
</svg>
