<svg width="244" height="56" viewBox="0 0 244 56" fill="none" xmlns="http://www.w3.org/2000/svg">
<g clip-path="url(#clip0_11_301)">
<rect x="83" width="56" height="56" rx="15" fill="#12193E"/>
<path d="M96.7812 43.5313L112.362 12.3594V32.196M112.362 32.196V43.5313M112.362 32.196V28.6538M112.362 28.6538L125.109 12.3594M112.362 28.6538L125.109 43.5313" stroke="#F0E7CF" stroke-width="4"/>
<g filter="url(#filter0_f_11_301)">
<path d="M84.75 22.9688C95.0795 22.9688 103.453 14.5951 103.453 4.26563C103.453 -6.06382 95.0795 -14.4375 84.75 -14.4375C74.4206 -14.4375 66.0469 -6.06382 66.0469 4.26563C66.0469 14.5951 74.4206 22.9688 84.75 22.9688Z" fill="#EC2F4B"/>
</g>
<g filter="url(#filter1_f_11_301)">
<path d="M133.313 70.2188C143.642 70.2188 152.016 61.8451 152.016 51.5156C152.016 41.1862 143.642 32.8125 133.313 32.8125C122.983 32.8125 114.609 41.1862 114.609 51.5156C114.609 61.8451 122.983 70.2188 133.313 70.2188Z" fill="#0484D9"/>
</g>
</g>
<path d="M1.29413 32.128C1.13413 32.128 0.974125 32.1173 0.814125 32.096C0.654125 32.0747 0.478125 32.0427 0.286125 32L0.398125 30.576C0.568792 30.6187 0.739458 30.64 0.910125 30.64C1.37946 30.64 1.75279 30.4533 2.03013 30.08C2.30746 29.7067 2.51013 29.1413 2.63813 28.384C2.77679 27.6267 2.86746 26.672 2.91013 25.52L3.08613 20.8H10.9741V32H9.40613V21.776L9.79013 22.192H4.11013L4.46213 21.76L4.33413 25.472C4.30213 26.5813 4.22746 27.552 4.11013 28.384C3.99279 29.216 3.81679 29.9093 3.58213 30.464C3.34746 31.0187 3.04346 31.4347 2.67013 31.712C2.30746 31.9893 1.84879 32.128 1.29413 32.128ZM15.9188 25.632H21.6788V26.992H15.9188V25.632ZM16.0628 30.608H22.5908V32H14.4628V20.8H22.3668V22.192H16.0628V30.608ZM30.1278 32.128C29.2744 32.128 28.4798 31.984 27.7438 31.696C27.0184 31.408 26.3891 31.008 25.8558 30.496C25.3224 29.9733 24.9064 29.3653 24.6078 28.672C24.3091 27.9787 24.1598 27.2213 24.1598 26.4C24.1598 25.5787 24.3091 24.8213 24.6078 24.128C24.9064 23.4347 25.3224 22.832 25.8558 22.32C26.3891 21.7973 27.0184 21.392 27.7438 21.104C28.4691 20.816 29.2638 20.672 30.1278 20.672C30.9811 20.672 31.7651 20.816 32.4798 21.104C33.2051 21.3813 33.8344 21.7813 34.3678 22.304C34.9118 22.816 35.3278 23.4187 35.6158 24.112C35.9144 24.8053 36.0638 25.568 36.0638 26.4C36.0638 27.232 35.9144 27.9947 35.6158 28.688C35.3278 29.3813 34.9118 29.9893 34.3678 30.512C33.8344 31.024 33.2051 31.424 32.4798 31.712C31.7651 31.9893 30.9811 32.128 30.1278 32.128ZM30.1278 30.704C30.7464 30.704 31.3171 30.5973 31.8398 30.384C32.3731 30.1707 32.8318 29.872 33.2158 29.488C33.6104 29.0933 33.9144 28.6347 34.1278 28.112C34.3518 27.5893 34.4638 27.0187 34.4638 26.4C34.4638 25.7813 34.3518 25.2107 34.1278 24.688C33.9144 24.1653 33.6104 23.712 33.2158 23.328C32.8318 22.9333 32.3731 22.6293 31.8398 22.416C31.3171 22.2027 30.7464 22.096 30.1278 22.096C29.4984 22.096 28.9171 22.2027 28.3838 22.416C27.8611 22.6293 27.4024 22.9333 27.0078 23.328C26.6131 23.712 26.3038 24.1653 26.0798 24.688C25.8664 25.2107 25.7598 25.7813 25.7598 26.4C25.7598 27.0187 25.8664 27.5893 26.0798 28.112C26.3038 28.6347 26.6131 29.0933 27.0078 29.488C27.4024 29.872 27.8611 30.1707 28.3838 30.384C28.9171 30.5973 29.4984 30.704 30.1278 30.704ZM46.6823 20.8H48.2823V32H46.6823V20.8ZM40.2503 32H38.6503V20.8H40.2503V32ZM46.8263 27.008H40.0903V25.616H46.8263V27.008ZM51.7753 32V20.8H53.3593V29.44L59.9833 20.8H61.4553V32H59.8873V23.376L53.2473 32H51.7753ZM72.2465 31.248V22.192H67.3345L67.2545 24.544C67.2225 25.3333 67.1692 26.0907 67.0945 26.816C67.0305 27.5413 66.9345 28.1973 66.8065 28.784C66.6785 29.36 66.4972 29.8347 66.2625 30.208C66.0385 30.5813 65.7505 30.8107 65.3985 30.896L63.6705 30.608C64.0865 30.64 64.4278 30.5013 64.6945 30.192C64.9718 29.872 65.1852 29.4293 65.3345 28.864C65.4945 28.288 65.6118 27.6213 65.6865 26.864C65.7612 26.096 65.8145 25.2747 65.8465 24.4L65.9585 20.8H73.8305V31.248H72.2465ZM63.2705 34.448L63.2865 30.608H75.4785V34.448H73.9905V32H64.7745L64.7585 34.448H63.2705Z" fill="#F0E7CF"/>
<path d="M155.428 32L151.364 26.48L152.66 25.68L157.252 32H155.428ZM147.892 32V20.8H149.46V32H147.892ZM148.98 27.072V25.664H152.612V27.072H148.98ZM152.804 26.576L151.332 26.352L155.348 20.8H157.06L152.804 26.576ZM163.901 32.128C163.048 32.128 162.253 31.984 161.517 31.696C160.792 31.408 160.163 31.008 159.629 30.496C159.096 29.9733 158.68 29.3653 158.381 28.672C158.083 27.9787 157.933 27.2213 157.933 26.4C157.933 25.5787 158.083 24.8213 158.381 24.128C158.68 23.4347 159.096 22.832 159.629 22.32C160.163 21.7973 160.792 21.392 161.517 21.104C162.243 20.816 163.037 20.672 163.901 20.672C164.755 20.672 165.539 20.816 166.253 21.104C166.979 21.3813 167.608 21.7813 168.141 22.304C168.685 22.816 169.101 23.4187 169.389 24.112C169.688 24.8053 169.837 25.568 169.837 26.4C169.837 27.232 169.688 27.9947 169.389 28.688C169.101 29.3813 168.685 29.9893 168.141 30.512C167.608 31.024 166.979 31.424 166.253 31.712C165.539 31.9893 164.755 32.128 163.901 32.128ZM163.901 30.704C164.52 30.704 165.091 30.5973 165.613 30.384C166.147 30.1707 166.605 29.872 166.989 29.488C167.384 29.0933 167.688 28.6347 167.901 28.112C168.125 27.5893 168.237 27.0187 168.237 26.4C168.237 25.7813 168.125 25.2107 167.901 24.688C167.688 24.1653 167.384 23.712 166.989 23.328C166.605 22.9333 166.147 22.6293 165.613 22.416C165.091 22.2027 164.52 22.096 163.901 22.096C163.272 22.096 162.691 22.2027 162.157 22.416C161.635 22.6293 161.176 22.9333 160.781 23.328C160.387 23.712 160.077 24.1653 159.853 24.688C159.64 25.2107 159.533 25.7813 159.533 26.4C159.533 27.0187 159.64 27.5893 159.853 28.112C160.077 28.6347 160.387 29.0933 160.781 29.488C161.176 29.872 161.635 30.1707 162.157 30.384C162.691 30.5973 163.272 30.704 163.901 30.704ZM172.424 32V20.8H176.792C177.773 20.8 178.61 20.9547 179.304 21.264C179.997 21.5733 180.53 22.0213 180.904 22.608C181.277 23.1947 181.464 23.8933 181.464 24.704C181.464 25.5147 181.277 26.2133 180.904 26.8C180.53 27.376 179.997 27.824 179.304 28.144C178.61 28.4533 177.773 28.608 176.792 28.608H173.304L174.024 27.856V32H172.424ZM174.024 28.016L173.304 27.216H176.744C177.768 27.216 178.541 26.9973 179.064 26.56C179.597 26.1227 179.864 25.504 179.864 24.704C179.864 23.904 179.597 23.2853 179.064 22.848C178.541 22.4107 177.768 22.192 176.744 22.192H173.304L174.024 21.392V28.016ZM188.886 32.128C188.032 32.128 187.238 31.984 186.502 31.696C185.776 31.408 185.147 31.008 184.614 30.496C184.08 29.9733 183.664 29.3653 183.366 28.672C183.067 27.9787 182.918 27.2213 182.918 26.4C182.918 25.5787 183.067 24.8213 183.366 24.128C183.664 23.4347 184.08 22.832 184.614 22.32C185.147 21.7973 185.776 21.392 186.502 21.104C187.227 20.816 188.022 20.672 188.886 20.672C189.739 20.672 190.523 20.816 191.238 21.104C191.963 21.3813 192.592 21.7813 193.126 22.304C193.67 22.816 194.086 23.4187 194.374 24.112C194.672 24.8053 194.822 25.568 194.822 26.4C194.822 27.232 194.672 27.9947 194.374 28.688C194.086 29.3813 193.67 29.9893 193.126 30.512C192.592 31.024 191.963 31.424 191.238 31.712C190.523 31.9893 189.739 32.128 188.886 32.128ZM188.886 30.704C189.504 30.704 190.075 30.5973 190.598 30.384C191.131 30.1707 191.59 29.872 191.974 29.488C192.368 29.0933 192.672 28.6347 192.886 28.112C193.11 27.5893 193.222 27.0187 193.222 26.4C193.222 25.7813 193.11 25.2107 192.886 24.688C192.672 24.1653 192.368 23.712 191.974 23.328C191.59 22.9333 191.131 22.6293 190.598 22.416C190.075 22.2027 189.504 22.096 188.886 22.096C188.256 22.096 187.675 22.2027 187.142 22.416C186.619 22.6293 186.16 22.9333 185.766 23.328C185.371 23.712 185.062 24.1653 184.838 24.688C184.624 25.2107 184.518 25.7813 184.518 26.4C184.518 27.0187 184.624 27.5893 184.838 28.112C185.062 28.6347 185.371 29.0933 185.766 29.488C186.16 29.872 186.619 30.1707 187.142 30.384C187.675 30.5973 188.256 30.704 188.886 30.704ZM197.408 32V20.8H205.856V22.16H198.992V25.36H202.48C203.813 25.36 204.827 25.6373 205.52 26.192C206.213 26.7467 206.56 27.552 206.56 28.608C206.56 29.696 206.181 30.5333 205.424 31.12C204.677 31.7067 203.605 32 202.208 32H197.408ZM198.992 30.736H202.144C203.072 30.736 203.771 30.56 204.24 30.208C204.72 29.856 204.96 29.3333 204.96 28.64C204.96 27.296 204.021 26.624 202.144 26.624H198.992V30.736ZM216.647 32L212.583 26.48L213.879 25.68L218.471 32H216.647ZM209.111 32V20.8H210.679V32H209.111ZM210.199 27.072V25.664H213.831V27.072H210.199ZM214.023 26.576L212.551 26.352L216.567 20.8H218.279L214.023 26.576ZM225.12 32.128C224.267 32.128 223.472 31.984 222.736 31.696C222.011 31.408 221.381 31.008 220.848 30.496C220.315 29.9733 219.899 29.3653 219.6 28.672C219.301 27.9787 219.152 27.2213 219.152 26.4C219.152 25.5787 219.301 24.8213 219.6 24.128C219.899 23.4347 220.315 22.832 220.848 22.32C221.381 21.7973 222.011 21.392 222.736 21.104C223.461 20.816 224.256 20.672 225.12 20.672C225.973 20.672 226.757 20.816 227.472 21.104C228.197 21.3813 228.827 21.7813 229.36 22.304C229.904 22.816 230.32 23.4187 230.608 24.112C230.907 24.8053 231.056 25.568 231.056 26.4C231.056 27.232 230.907 27.9947 230.608 28.688C230.32 29.3813 229.904 29.9893 229.36 30.512C228.827 31.024 228.197 31.424 227.472 31.712C226.757 31.9893 225.973 32.128 225.12 32.128ZM225.12 30.704C225.739 30.704 226.309 30.5973 226.832 30.384C227.365 30.1707 227.824 29.872 228.208 29.488C228.603 29.0933 228.907 28.6347 229.12 28.112C229.344 27.5893 229.456 27.0187 229.456 26.4C229.456 25.7813 229.344 25.2107 229.12 24.688C228.907 24.1653 228.603 23.712 228.208 23.328C227.824 22.9333 227.365 22.6293 226.832 22.416C226.309 22.2027 225.739 22.096 225.12 22.096C224.491 22.096 223.909 22.2027 223.376 22.416C222.853 22.6293 222.395 22.9333 222 23.328C221.605 23.712 221.296 24.1653 221.072 24.688C220.859 25.2107 220.752 25.7813 220.752 26.4C220.752 27.0187 220.859 27.5893 221.072 28.112C221.296 28.6347 221.605 29.0933 222 29.488C222.395 29.872 222.853 30.1707 223.376 30.384C223.909 30.5973 224.491 30.704 225.12 30.704ZM233.642 32V20.8H238.458C239.674 20.8 240.629 21.0453 241.322 21.536C242.016 22.0267 242.362 22.7413 242.362 23.68C242.362 24.5973 242.032 25.3013 241.37 25.792C240.709 26.272 239.84 26.512 238.762 26.512L239.05 26.032C240.298 26.032 241.253 26.2827 241.914 26.784C242.586 27.2747 242.922 27.9947 242.922 28.944C242.922 29.904 242.57 30.656 241.866 31.2C241.173 31.7333 240.138 32 238.762 32H233.642ZM235.226 30.736H238.73C239.584 30.736 240.224 30.5813 240.65 30.272C241.088 29.952 241.306 29.4667 241.306 28.816C241.306 28.1653 241.088 27.6907 240.65 27.392C240.224 27.0933 239.584 26.944 238.73 26.944H235.226V30.736ZM235.226 25.728H238.346C239.125 25.728 239.717 25.5733 240.122 25.264C240.538 24.9547 240.746 24.5013 240.746 23.904C240.746 23.296 240.538 22.8373 240.122 22.528C239.717 22.2187 239.125 22.064 238.346 22.064H235.226V25.728Z" fill="#F0E7CF"/>
<defs>
<filter id="filter0_f_11_301" x="46.0469" y="-34.4375" width="77.4062" height="77.4062" filterUnits="userSpaceOnUse" color-interpolation-filters="sRGB">
<feFlood flood-opacity="0" result="BackgroundImageFix"/>
<feBlend mode="normal" in="SourceGraphic" in2="BackgroundImageFix" result="shape"/>
<feGaussianBlur stdDeviation="10" result="effect1_foregroundBlur_11_301"/>
</filter>
<filter id="filter1_f_11_301" x="94.6094" y="12.8125" width="77.4062" height="77.4062" filterUnits="userSpaceOnUse" color-interpolation-filters="sRGB">
<feFlood flood-opacity="0" result="BackgroundImageFix"/>
<feBlend mode="normal" in="SourceGraphic" in2="BackgroundImageFix" result="shape"/>
<feGaussianBlur stdDeviation="10" result="effect1_foregroundBlur_11_301"/>
</filter>
<clipPath id="clip0_11_301">
<rect x="83" width="56" height="56" rx="15" fill="white"/>
</clipPath>
</defs>
</svg>
